<svg width="91" height="28" viewBox="0 0 91 28" fill="none" xmlns="http://www.w3.org/2000/svg">
<path d="M20.269 6.72854V15.2162C20.269 15.3538 20.2149 15.4858 20.1185 15.5831C20.0222 15.6803 19.8916 15.735 19.7553 15.735H17.1024C16.9662 15.7349 16.8356 15.6803 16.7393 15.583C16.643 15.4857 16.5889 15.3538 16.5888 15.2162V1.41058C16.5888 1.27299 16.6429 1.14104 16.7392 1.04376C16.8356 0.946471 16.9662 0.891816 17.1024 0.891816H19.5574C19.6936 0.891816 19.8243 0.946471 19.9206 1.04376C20.0169 1.14104 20.071 1.27299 20.071 1.41058V3.35478C20.071 3.35478 20.9486 0.58143 23.5531 0.58143C23.5531 0.58143 26.1292 0.266927 27.1766 3.15464C27.1766 3.15464 28.0542 0.58143 30.7153 0.58143C30.7153 0.58143 34.6726 0.34378 34.6726 4.47944L34.7028 6.75713V15.2448C34.7028 15.3824 34.6487 15.5144 34.5523 15.6116C34.456 15.7089 34.3254 15.7636 34.1891 15.7636H31.536C31.3998 15.7635 31.2692 15.7089 31.1729 15.6116C31.0766 15.5143 31.0224 15.3824 31.0224 15.2448L30.9981 5.98517C31.0735 3.8884 29.394 4.04097 29.394 4.04097C27.2803 4.07916 27.4837 6.75713 27.4837 6.75713V15.2448C27.4837 15.3824 27.4296 15.5144 27.3333 15.6116C27.237 15.7089 27.1063 15.7636 26.9701 15.7636H24.3172C24.181 15.7635 24.0504 15.7089 23.954 15.6116C23.8577 15.5143 23.8036 15.3824 23.8035 15.2448V6.19468C23.8035 6.19468 23.9587 4.02175 22.0712 4.02175C22.0715 4.02175 20.2031 3.77404 20.269 6.72854ZM88.6536 6.70315V15.1906C88.6535 15.3282 88.5994 15.4601 88.5031 15.5574C88.4068 15.6546 88.2761 15.7093 88.1399 15.7094L85.3808 15.7634C85.2446 15.7633 85.114 15.7086 85.0177 15.6114C84.9214 15.5141 84.8672 15.3822 84.8672 15.2446V6.19468C84.8672 6.19468 85.0223 4.02175 83.1351 4.02175C83.1351 4.02175 81.3326 3.93209 81.3326 7.33902V15.216C81.3326 15.3536 81.2784 15.4855 81.1821 15.5828C81.0858 15.68 80.9552 15.7347 80.819 15.7348H78.1658C78.0296 15.7347 77.899 15.68 77.8027 15.5828C77.7064 15.4855 77.6523 15.3536 77.6522 15.216V1.41058C77.6523 1.27301 77.7064 1.1411 77.8027 1.04382C77.899 0.946551 78.0296 0.891877 78.1658 0.891816H80.6208C80.757 0.891816 80.8877 0.946471 80.984 1.04376C81.0803 1.14104 81.1345 1.27299 81.1345 1.41058V3.35478C81.1345 3.35478 82.012 0.58143 84.6165 0.58143C84.6165 0.58143 87.4064 0.153935 88.346 3.10089C88.3463 3.10066 88.6536 3.70862 88.6536 6.70315ZM69.4985 0.524248C66.1059 0.524248 63.3554 3.41196 63.3554 8.27246C63.3554 12.5518 65.4786 16.0207 69.4985 16.0207C73.2919 16.0207 75.6416 12.5518 75.6416 8.27246C75.6416 3.49773 72.8913 0.524248 69.4985 0.524248ZM71.6398 8.44401C71.6398 10.2738 71.4133 11.2459 71.4133 11.2459C71.0911 13.1803 69.7008 13.1831 69.4958 13.1728C69.2745 13.1817 67.8724 13.1616 67.5823 11.2459C67.5823 11.2459 67.3559 10.2738 67.3559 8.44401V8.13911C67.3559 6.30928 67.5823 5.33718 67.5823 5.33718C67.8724 3.42157 69.2747 3.40144 69.4958 3.41013C69.7008 3.39984 71.0911 3.40235 71.4133 5.33718C71.4133 5.33718 71.6398 6.30928 71.6398 8.13911V8.44401ZM61.8156 3.33556V1.35476C61.8156 1.2172 61.7615 1.08529 61.6651 0.988014C61.5688 0.890741 61.4382 0.836067 61.302 0.836006H52.533C52.3967 0.836006 52.2661 0.890661 52.1698 0.987947C52.0734 1.08523 52.0193 1.21718 52.0193 1.35476V3.32024C52.0194 3.4578 52.0735 3.58972 52.1698 3.68699C52.2662 3.78426 52.3968 3.83894 52.533 3.839H57.107L51.693 11.7713C51.693 11.7713 51.4796 12.0929 51.4867 12.4482V14.861C51.4867 14.861 51.4513 15.6883 52.3803 15.2082C52.3803 15.2082 54.0304 14.2014 56.7972 14.2014C56.7972 14.2014 59.5296 14.1671 61.3514 15.2949C61.3514 15.2949 62.1076 15.6421 62.1076 14.8786V12.7784C62.1076 12.7784 62.1762 12.2226 61.4544 11.8756C61.4544 11.8756 59.3577 10.7128 56.6081 10.9035L61.8156 3.33556ZM14.5413 13.2661L13.7108 11.9893C13.4465 11.5126 13.4655 10.9788 13.4655 10.9788V5.08923C13.5787 -7.15256e-07 7.99234 0.438474 7.99234 0.438474C3.02624 0.438474 2.2927 4.34175 2.2927 4.34175C2.0857 5.12652 2.68767 5.1455 2.68767 5.1455L5.11432 5.39413C5.11432 5.39413 5.52809 5.48974 5.67869 4.99225C5.67869 4.99225 5.99825 3.28936 7.78534 3.28936C9.72984 3.28936 9.70968 4.97487 9.70968 4.97487V6.3859C5.82794 6.51696 4.02907 7.60526 4.02907 7.60526C1.6323 8.97764 1.78313 11.7034 1.78313 11.7034C1.78313 16.1444 5.97288 15.9537 5.97288 15.9537C8.65273 15.9537 10.238 13.9715 10.238 13.9715C10.7098 14.8105 11.5781 15.6106 11.5781 15.6106C12.0125 16.0863 12.4652 15.687 12.4652 15.687L14.428 13.9907C14.8619 13.6664 14.5413 13.2661 14.5413 13.2661ZM7.28076 13.2112C6.02022 13.2112 5.55164 11.9461 5.7609 10.7027C5.97039 9.45934 7.05837 8.48221 9.70991 8.5108V9.26675C9.8039 12.5691 8.33001 13.2112 7.28076 13.2112ZM49.7954 13.2661L48.9651 11.9893C48.7008 11.5126 48.7196 10.9788 48.7196 10.9788V5.08923C48.8329 -7.15256e-07 43.2465 0.438474 43.2465 0.438474C38.2804 0.438474 37.5468 4.34175 37.5468 4.34175C37.3398 5.12652 37.9418 5.1455 37.9418 5.1455L40.3684 5.39413C40.3684 5.39413 40.7822 5.48974 40.9328 4.99225C40.9328 4.99225 41.2524 3.28936 43.0395 3.28936C44.984 3.28936 44.9638 4.97487 44.9638 4.97487V6.3859C41.0823 6.51696 39.2832 7.60526 39.2832 7.60526C36.8864 8.97764 37.0373 11.7034 37.0373 11.7034C37.0373 16.1444 41.227 15.9537 41.227 15.9537C43.9068 15.9537 45.4922 13.9715 45.4922 13.9715C45.9641 14.8105 46.832 15.6106 46.832 15.6106C47.2663 16.0863 47.7193 15.687 47.7193 15.687L49.6819 13.9907C50.1161 13.6664 49.7954 13.2661 49.7954 13.2661ZM42.5349 13.2112C41.2743 13.2112 40.8058 11.9461 41.015 10.7027C41.2245 9.45934 42.3125 8.48221 44.9638 8.5108V9.26675C45.058 12.5691 43.5844 13.2112 42.5349 13.2112Z" fill="white"/>
<path d="M56.4754 24.4139C56.4754 24.4139 56.2535 24.8039 56.5261 24.891C56.5261 24.891 56.8341 25.0125 57.2182 24.6525C57.2182 24.6525 60.0195 22.1811 60.087 17.6815C60.087 17.6815 60.1076 17.1195 59.8843 16.9658C59.8843 16.9658 59.0067 16.1817 55.851 16.4203C55.851 16.4203 53.1003 16.6078 51.5985 17.9544C51.5985 17.9544 51.4636 18.0735 51.4636 18.2268C51.4636 18.2268 51.4312 18.5578 52.2567 18.4143C52.2567 18.4143 55.0072 18.0221 56.6441 18.2268C56.6441 18.2268 57.4882 18.329 57.7244 18.6191C57.7244 18.6191 58.1126 18.9429 57.9099 20.0164C57.9099 20.0168 57.3528 22.7437 56.4754 24.4139Z" fill="white"/>
<path d="M55.9208 20.0971C55.9208 20.0971 56.3316 20.6346 55.6688 21.0983C55.6688 21.0983 48.5876 26.8188 36.6978 26.8188C36.6978 26.8188 24.4588 27.4286 14.2392 18.0507C14.2392 18.0507 13.8809 17.733 14.1033 17.4377C14.1033 17.4377 14.3021 17.1659 14.8169 17.4615C14.8169 17.4615 24.4305 23.5116 37.0563 23.5116C37.0563 23.5116 45.8321 23.8547 54.8344 19.9663C54.8344 19.9663 55.5517 19.5909 55.9208 20.0971Z" fill="white"/>
</svg>
